HIERARCHY
ROOT Hips
{
  OFFSET 13.6774 106.653 -34.4427
  CHANNELS 6 Xposition Yposition Zposition Zrotation Xrotation Yrotation
  JOINT ToSpine
  {
    OFFSET -2.69724 7.43032 -0.144315
    CHANNELS 3 Zrotation Xrotation Yrotation
    JOINT Spine
    {
      OFFSET -0.0310711 10.7595 1.96963
      CHANNELS 3 Zrotation Xrotation Yrotation
      JOINT Spine1
      {
        OFFSET 19.9056 3.91189 0.764692
        CHANNELS 3 Zrotation Xrotation Yrotation
        JOINT Neck
        {
          OFFSET 25.9749 7.03908 -0.130764
          CHANNELS 3 Zrotation Xrotation Yrotation
          JOINT Head
          {
            OFFSET 9.52751 0.295786 -0.907742
            CHANNELS 3 Zrotation Xrotation Yrotation
            End Site
            {
              OFFSET 16.4037 0.713936 2.7358
            }
          }
        }
        JOINT LeftShoulder
        {
          OFFSET 17.7449 4.33886 11.7777
          CHANNELS 3 Zrotation Xrotation Yrotation
          JOINT LeftArm
          {
            OFFSET 0.911315 1.27913 9.80584
            CHANNELS 3 Zrotation Xrotation Yrotation
            JOINT LeftForeArm
            {
              OFFSET 28.6126 1.18197 -3.53199
              CHANNELS 3 Zrotation Xrotation Yrotation
              JOINT LeftHand
              {
                OFFSET 27.5088 0.0218783 0.327423
                CHANNELS 3 Zrotation Xrotation Yrotation
                End Site
                {
                  OFFSET 18.6038 -0.000155887 0.382096
                }
              }
            }
          }
        }
        JOINT RightShoulder
        {
          OFFSET 17.1009 2.89543 -12.2328
          CHANNELS 3 Zrotation Xrotation Yrotation
          JOINT RightArm
          {
            OFFSET 1.4228 0.178766 -10.211
            CHANNELS 3 Zrotation Xrotation Yrotation
            JOINT RightForeArm
            {
              OFFSET 28.733 1.87905 2.64907
              CHANNELS 3 Zrotation Xrotation Yrotation
              JOINT RightHand
              {
                OFFSET 27.4588 0.290562 -0.101845
                CHANNELS 3 Zrotation Xrotation Yrotation
                End Site
                {
                  OFFSET 17.8396 -0.255518 -0.000602873
                }
              }
            }
          }
        }
      }
    }
  }
  JOINT LeftUpLeg
  {
    OFFSET -5.61296 -2.22332 -10.2353
    CHANNELS 3 Zrotation Xrotation Yrotation
    JOINT LeftLeg
    {
      OFFSET 2.56703 -44.7417 -7.93097
      CHANNELS 3 Zrotation Xrotation Yrotation
      JOINT LeftFoot
      {
        OFFSET 3.16933 -46.5642 -3.96578
        CHANNELS 3 Zrotation Xrotation Yrotation
        JOINT LeftToeBase
        {
          OFFSET 0.346054 -6.02161 12.8035
          CHANNELS 3 Zrotation Xrotation Yrotation
          End Site
          {
            OFFSET 0.134235 -1.35082 5.13018
          }
        }
      }
    }
  }
  JOINT RightUpLeg
  {
    OFFSET -5.7928 -1.72406 10.6446
    CHANNELS 3 Zrotation Xrotation Yrotation
    JOINT RightLeg
    {
      OFFSET -2.57161 -44.7178 -7.85259
      CHANNELS 3 Zrotation Xrotation Yrotation
      JOINT RightFoot
      {
        OFFSET -3.10148 -46.5936 -4.03391
        CHANNELS 3 Zrotation Xrotation Yrotation
        JOINT RightToeBase
        {
          OFFSET -0.0828122 -6.13587 12.8035
          CHANNELS 3 Zrotation Xrotation Yrotation
          End Site
          {
            OFFSET -0.131328 -1.35082 5.13018
          }
        }
      }
    }
  }
}
MOTION
Frames: 12
Frame Time: 0.03333333333333333
0.0000 93.1000 0.0000 49.9928 -32.6695 -32.6474 -71.0355 0.4282 87.6947 134.4891 67.4056 -48.9592 -2.6572 22.7772 3.0742 -135.0613 40.0317 156.0173 159.7692 79.7633 -114.3995 0.4679 -12.5446 -23.9497 -76.1307 45.6891 -91.1166 11.6668 8.5665 -53.7390 -0.1638 -0.5282 -0.1435 -2.9365 8.1359 41.3742 -117.7756 -6.7138 92.0976 11.9408 -4.6590 70.6921 -0.2158 0.6165 -0.4468 -24.0655 12.9063 99.9304 -11.0756 67.9023 -7.4365 -4.0637 -13.3059 -1.1888 6.8344 -16.3942 15.8017 -7.6441 -8.8952 78.7512 3.1861 60.9345 -5.6639 -14.1732 -15.5103 1.2110 1.4134 -2.1046 -11.5061 
0.0000 93.1000 0.0000 49.1709 -32.0476 -32.9776 -71.0530 0.3807 87.7285 136.6634 66.2747 -51.1014 -3.0892 23.0761 2.9273 -135.9720 40.3108 157.0425 155.8126 79.1938 -110.3480 0.4070 -12.5220 -24.4835 -76.8301 45.8711 -87.9737 9.9532 8.7957 -48.1322 0.0898 -0.4577 -0.2860 -2.8647 8.2268 41.0457 -116.1790 -8.0806 91.0580 12.8566 -5.9369 69.9425 -0.1764 0.5407 -0.3644 -22.2037 13.3993 98.9006 -15.5033 74.1548 -5.3025 -4.9875 -11.6813 -1.0829 7.8829 -18.0940 16.0586 -4.5378 -9.6272 79.2552 3.7239 63.3461 -6.7170 -14.2518 -16.8806 1.1954 1.3111 -2.0718 -12.2523 
0.0000 93.1000 0.0000 48.3778 -31.8864 -33.7592 -71.1491 0.7120 87.8196 139.4331 64.8665 -52.3295 -2.6193 22.8246 3.0702 -136.8706 40.5801 158.7140 149.2126 78.5286 -105.3163 0.8602 -12.1648 -24.9297 -78.5157 46.5159 -85.4557 8.4107 9.5297 -43.5197 0.1764 -0.8981 -0.0487 -2.8896 8.2149 40.3020 -114.6467 -8.9009 90.6090 12.2519 -6.5261 68.3399 -0.3023 1.1097 -0.5393 -21.6292 13.7932 98.0456 -26.3853 78.8057 6.4307 -4.9383 -10.0221 -0.6312 7.9092 -18.3327 14.8350 -2.3671 -9.5135 80.4013 4.3231 66.0958 -7.9913 -13.6960 -17.6429 0.8249 1.5057 -2.3208 -14.7387 
0.0000 93.1000 0.0000 47.5819 -32.3198 -32.9771 -71.2705 0.9130 88.0839 141.6113 63.7708 -54.0059 -1.8574 22.6359 2.4371 -137.4892 39.9223 158.2391 158.2842 79.0874 -113.8174 1.2009 -11.9981 -24.6284 -80.0617 46.8373 -82.4402 8.6220 10.1714 -39.6917 -0.3644 -0.9739 0.3525 -2.8655 8.2008 39.9064 -113.2942 -9.0651 91.0098 12.1976 -6.8256 66.3086 -0.3669 1.3121 -0.6527 -21.7023 14.4068 96.5585 -55.0806 82.1825 34.1686 -5.1445 -6.1811 -0.0983 8.1242 -19.2092 13.8901 0.6485 -8.2261 81.2977 7.6379 68.9596 -9.1034 -13.7939 -17.9321 0.6301 0.8764 -2.3873 -14.4538 
0.0000 93.1000 0.0000 47.6124 -32.3307 -33.7855 -71.1950 0.4592 87.9959 143.6917 62.9249 -55.5105 -2.5721 23.0859 1.9125 -138.3358 39.7663 158.6077 165.6547 79.9290 -120.7930 0.9683 -10.7665 -23.9152 -80.6221 47.9925 -78.3862 7.6385 10.0518 -37.3302 0.2718 -0.8034 -0.0703 -3.0140 8.8023 40.8233 -111.7226 -9.0218 91.8489 13.3237 -8.0175 64.6461 0.1782 1.1326 -0.7108 -22.3135 14.3316 95.6319 -100.1689 83.4441 79.6428 -6.2045 -2.3148 0.3729 7.3337 -18.3841 11.8703 2.6577 -7.8908 81.6594 8.0185 72.5300 -10.4499 -14.2921 -19.6564 0.4492 2.3215 -2.3484 -15.5774 
0.0000 93.1000 0.0000 46.5182 -33.3413 -33.8997 -71.2581 0.5696 88.1615 146.0166 62.1178 -56.9746 -2.7300 23.1836 2.0004 -139.2779 39.9537 158.1522 165.5477 79.2522 -118.9187 1.1048 -10.5447 -23.4139 -82.3428 48.4613 -74.2085 7.5618 9.8304 -36.4856 -0.1536 -0.9180 -0.2112 -3.1214 9.3407 41.1444 -109.2635 -9.1178 91.4364 12.9082 -7.5173 64.3387 0.0648 1.2894 -0.5765 -23.2781 14.1822 94.0143 -129.2505 81.8884 105.8422 -6.2560 1.9820 1.0192 7.1486 -17.0065 10.5379 4.7133 -6.9022 82.1983 11.0704 75.2880 -13.1969 -14.8314 -20.8688 0.3625 1.6625 -1.9810 -16.6958 
0.0000 93.1000 0.0000 45.5805 -34.4372 -34.2210 -71.4889 0.2536 88.2992 147.8773 61.2283 -58.0079 -3.1040 23.4608 2.0962 -140.1517 39.5443 160.2883 162.2503 78.8868 -114.0014 1.0266 -10.1752 -22.9921 -84.6902 48.5352 -70.4759 7.5696 10.5957 -34.6885 -0.3743 -0.9609 0.0524 -3.3994 9.4781 41.3780 -108.2224 -7.9412 91.4864 12.6870 -7.5872 62.1430 -0.6103 1.2803 -0.6726 -24.2194 14.1138 92.5185 -140.3073 79.9401 115.4570 -6.4617 4.1835 1.7461 7.4208 -16.9631 10.8154 6.7505 -4.9366 83.2821 15.0607 78.6357 -18.5227 -13.5174 -21.0160 -0.4323 0.9204 -1.0786 -17.3956 
0.0000 93.1000 0.0000 45.4364 -34.9843 -33.7296 -71.4021 0.6947 88.4566 148.6691 61.2039 -58.8883 -3.7294 24.0918 2.7397 -140.1918 40.1463 160.8962 161.4477 78.8722 -114.0948 1.3024 -10.2338 -22.5741 -85.3593 49.6738 -67.3952 5.9445 10.4627 -34.5228 0.0841 -0.8202 -0.4031 -2.9793 9.3496 42.2328 -106.2314 -7.3536 92.2846 13.5170 -8.0640 59.7648 -0.2811 1.0779 -0.4235 -26.0827 14.1142 92.5924 -143.8297 79.7500 119.3153 -4.7350 1.7964 0.6778 8.5143 -19.2619 10.7390 9.6099 -4.5596 82.6584 23.8510 83.0704 -28.8306 -13.9917 -22.4125 0.4538 2.4879 -1.0216 -19.1386 
0.0000 93.1000 0.0000 44.9246 -36.2017 -33.4842 -71.3559 1.1243 88.7540 150.9130 60.1027 -60.7414 -4.6376 24.0474 3.0831 -140.1969 40.2235 159.8896 160.5309 78.9627 -114.0763 1.8293 -9.2216 -20.8325 -85.8740 50.5519 -63.3594 6.4572 10.5497 -33.0443 -0.1162 -1.1680 -0.2676 -2.9785 9.0253 42.5636 -104.2100 -6.4372 92.0377 11.7516 -7.6436 59.0180 -0.3682 1.5017 -0.3165 -28.5368 14.8465 92.2605 -144.9691 79.1326 120.5063 -3.3804 -3.2812 0.1583 12.0536 -23.7134 12.0579 11.8154 -2.6609 82.8694 52.4995 85.3858 -57.2222 -13.8902 -23.5919 0.2629 2.9953 -1.6502 -22.3386 
0.0000 93.1000 0.0000 45.7561 -37.2305 -32.2132 -71.2517 0.6507 88.5800 152.9734 59.1664 -62.1589 -4.3100 24.0105 3.0911 -140.0171 39.5288 159.3698 159.2336 78.5550 -111.3992 1.4481 -8.1179 -19.7824 -85.3886 52.8150 -62.1205 6.3837 10.6993 -31.1399 -0.3513 -0.5904 -0.3019 -2.9304 8.7337 43.0666 -103.1760 -5.2318 92.1602 10.8663 -7.5882 58.9894 -0.0458 0.8145 0.0467 -31.1047 13.2293 90.7049 -147.7501 78.0969 124.0907 -3.7358 -8.7679 -0.8969 17.1265 -30.5895 15.2400 14.2609 -1.1456 83.1271 118.7010 85.2307 -123.9664 -13.2779 -24.5413 0.1909 3.0069 -2.1392 -22.3928 
0.0000 93.1000 0.0000 46.8845 -38.9499 -30.9764 -71.2174 0.4758 88.2721 154.9777 58.8401 -63.7683 -5.1473 24.8882 3.2327 -139.2389 39.7857 159.6500 160.2409 78.6383 -112.3643 1.3372 -7.5984 -18.8978 -86.1235 53.0104 -59.4192 6.0198 10.7358 -30.3329 0.3329 -0.4455 -0.1565 -2.9379 8.7070 42.7432 -101.8527 -4.4530 90.9634 11.9178 -8.0036 58.0339 0.3775 0.6081 0.0358 -33.4504 13.4149 90.0664 -150.9730 76.5149 128.0015 -4.1955 -11.0537 -1.2441 22.9699 -37.0769 21.2561 15.5324 -1.1003 82.9933 148.3256 83.0168 -155.0781 -14.7832 -24.5295 0.2265 3.3638 -3.9913 -23.0074 
0.0000 93.1000 0.0000 48.8319 -38.9642 -29.0792 -71.3153 0.4573 88.3216 156.7339 57.0440 -65.6377 -4.9745 25.1782 3.1164 -139.2277 40.0482 158.3098 159.4377 78.9166 -112.2809 1.4615 -7.4273 -18.4989 -86.0000 52.8009 -57.2473 5.5562 10.6877 -28.9550 0.4466 -0.7137 -0.3379 -3.1337 9.2955 43.1698 -99.9697 -3.9384 90.7561 10.9479 -7.7099 56.8787 0.4381 0.7468 -0.4896 -34.5953 13.6230 88.5288 -154.8845 73.7447 132.3809 -2.8225 -13.7807 -1.3804 25.7616 -38.7443 25.0752 16.9585 -2.2699 82.4053 157.7162 79.0090 -165.2038 -15.9866 -26.1316 0.2261 3.5130 -4.5938 -22.4556 
